<?xml version="1.0" standalone="no"?>
<!DOCTYPE svg PUBLIC "-//W3C//DTD SVG 20010904//EN"
 "http://www.w3.org/TR/2001/REC-SVG-20010904/DTD/svg10.dtd">
<svg version="1.0" xmlns="http://www.w3.org/2000/svg"
 width="1357.000000pt" height="1357.000000pt" viewBox="0 0 1357.000000 1357.000000"
 preserveAspectRatio="xMidYMid meet">
<metadata>
Created by potrace 1.14, written by Peter Selinger 2001-2017
</metadata>
<g transform="translate(0.000000,1357.000000) scale(0.100000,-0.100000)"
fill="#000000" stroke="none">
<path d="M2553 13210 c-56 -39 -105 -80 -108 -91 -4 -11 -20 -25 -36 -31 -16
-5 -29 -14 -29 -20 0 -6 -6 -8 -14 -5 -18 7 -75 -55 -73 -80 1 -25 -35 -122
-41 -105 -6 19 -22 3 -22 -22 0 -23 -91 -126 -111 -126 -5 0 -12 8 -16 18 -14
38 -25 44 -47 24 -41 -37 -127 -93 -135 -87 -11 6 -91 -57 -148 -116 -45 -48
-67 -107 -57 -157 6 -31 4 -35 -56 -109 -6 -7 -10 -17 -10 -23 0 -6 -4 -9 -9
-6 -5 4 -11 2 -13 -3 -5 -14 -139 -91 -158 -91 -13 0 -43 -36 -90 -107 -71
-106 -72 -108 -65 -157 3 -28 8 -52 10 -54 1 -2 29 -6 61 -9 33 -3 67 -12 77
-21 22 -19 22 -49 0 -57 -26 -9 -140 -145 -185 -220 -22 -36 -46 -65 -54 -65
-18 0 -45 60 -46 101 -1 16 -5 29 -9 29 -14 0 -36 -51 -44 -100 -4 -25 -10
-49 -13 -55 -3 -5 -5 -27 -3 -50 2 -35 -28 -119 -48 -135 -29 -23 -63 -136
-39 -127 7 2 12 10 10 16 -1 6 2 11 7 11 5 0 12 12 16 28 10 43 55 102 78 102
29 0 84 -37 90 -60 3 -12 -7 -42 -24 -73 -16 -28 -29 -58 -29 -66 0 -16 -65
-117 -81 -127 -28 -17 -66 -159 -45 -168 8 -3 7 -7 -2 -13 -6 -5 -23 -46 -36
-92 -23 -78 -23 -84 -8 -111 16 -28 16 -31 -2 -65 -11 -19 -23 -35 -27 -35 -4
0 -17 26 -28 58 -28 77 -35 86 -59 90 -26 4 -65 -53 -82 -118 -7 -25 -23 -57
-37 -72 -27 -28 -68 -132 -58 -148 6 -9 -43 -103 -57 -108 -4 -2 -8 -9 -8 -15
-1 -7 -9 -30 -20 -52 -29 -61 -27 -77 13 -73 17 2 33 8 33 13 4 27 17 55 27
55 6 0 8 3 4 6 -12 12 59 98 101 122 32 18 50 15 77 -12 28 -28 36 -22 55 37
23 72 72 92 85 35 4 -18 7 -36 6 -40 -2 -12 39 -29 62 -26 12 2 21 9 19 16 -3
19 43 7 67 -17 15 -15 34 -21 65 -21 23 0 57 -5 74 -11 53 -18 49 -74 -6 -103
-28 -14 -163 -46 -215 -50 -16 -1 -33 -9 -38 -17 -6 -10 -9 -10 -9 -1 0 6 -12
12 -26 12 -20 0 -24 -3 -16 -12 7 -9 3 -19 -15 -33 -51 -40 -113 -109 -113
-125 0 -5 -4 -10 -9 -10 -12 0 -28 -50 -23 -72 3 -18 45 -35 71 -29 7 1 20 -1
30 -5 9 -4 32 -6 52 -5 22 2 42 -4 52 -13 17 -17 90 -19 80 -3 -3 6 -2 8 3 4
5 -3 42 6 83 19 94 31 102 30 154 -6 52 -37 72 -33 94 21 16 42 44 56 86 45
43 -10 67 -102 42 -163 -12 -28 -11 -32 3 -38 11 -4 22 1 31 14 8 13 24 21 42
21 25 0 30 5 40 43 7 23 12 69 11 103 -1 43 4 72 19 100 39 77 34 154 -11 154
-15 0 -20 7 -20 28 0 15 4 32 9 38 5 5 12 39 15 76 6 67 6 68 -22 74 -69 15
-65 9 -57 93 11 124 10 122 55 104 36 -14 42 -14 65 1 35 23 55 74 62 156 l6
68 -41 26 c-49 31 -83 75 -107 137 -37 101 -10 123 112 91 48 -13 93 -28 100
-34 15 -12 17 -86 3 -122 -14 -39 0 -32 56 27 56 58 90 127 99 202 3 28 13 73
22 101 17 56 13 86 -15 122 -18 23 -20 23 -68 9 -27 -8 -48 -16 -46 -18 4 -5
-4 -29 -28 -84 -10 -22 -21 -50 -24 -62 -17 -55 -58 -67 -105 -32 -18 13 -35
18 -43 14 -10 -6 -11 -5 0 6 23 25 14 91 -19 143 -33 53 -34 53 -145 30 -30
-6 -34 -3 -58 38 -34 59 -34 100 1 127 40 32 64 34 134 13 35 -11 86 -23 114
-27 70 -10 152 -43 170 -68 8 -12 15 -32 15 -44 0 -48 19 -19 40 61 l22 84 32
-9 c59 -17 72 -12 116 47 44 58 57 92 84 210 22 99 21 131 -5 139 -16 5 -19
12 -14 32 3 14 1 31 -6 39 -8 10 -8 14 0 14 13 0 8 57 -6 71 -6 6 -29 1 -62
-12 -44 -19 -52 -26 -47 -43 3 -12 6 -38 6 -59 0 -30 5 -40 19 -44 71 -18 18
-213 -58 -213 -15 0 -31 4 -36 9 -6 5 -32 22 -60 37 -88 48 -124 73 -140 98
-32 49 17 96 101 96 18 0 35 4 38 8 4 7 -15 80 -35 130 -5 14 -17 22 -33 22
-25 0 -36 15 -29 38 8 22 93 54 132 50 35 -5 195 34 288 69 58 21 81 71 89
189 7 96 14 114 49 114 17 0 27 11 43 48 12 26 25 54 30 62 49 84 46 90 -40
90 -45 0 -84 -6 -102 -15 -32 -17 -51 -20 -23 -4 17 10 16 12 -3 39 -36 51
-18 103 39 112 15 2 30 15 40 33 15 31 100 105 120 105 5 0 19 -9 29 -21 l20
-20 19 25 c11 14 34 74 51 133 44 155 45 170 22 193 -11 11 -23 20 -27 20 -5
0 -54 -32 -110 -70z m-465 -531 c3 -40 35 -85 73 -104 16 -9 29 -22 29 -29 0
-7 3 -27 6 -43 4 -21 1 -35 -11 -47 -10 -10 -20 -41 -24 -76 -4 -32 -13 -65
-20 -74 -15 -18 -47 -21 -56 -7 -3 5 -19 12 -35 16 -17 4 -30 10 -30 13 0 4 7
42 15 85 8 43 15 82 15 87 0 16 -32 19 -64 6 -37 -15 -47 -12 -65 21 -16 32
-14 39 24 80 19 20 35 40 35 44 0 4 8 9 18 13 9 3 31 14 47 25 40 26 40 26 43
-10z m307 -49 c3 -5 1 -10 -4 -10 -6 0 -11 5 -11 10 0 6 2 10 4 10 3 0 8 -4
11 -10z m-582 -339 c17 -17 16 -18 -23 -31 -51 -17 -126 -81 -134 -115 -7 -27
36 -96 101 -166 l34 -36 -31 -46 -31 -47 35 -31 c20 -17 36 -34 36 -39 0 -14
-144 -69 -155 -59 -5 5 -10 36 -10 68 0 33 -3 63 -8 67 -4 4 -22 -7 -40 -24
-37 -36 -66 -41 -90 -14 -26 28 -57 108 -64 160 -5 46 -4 48 37 81 23 18 46
46 52 62 5 16 13 29 17 29 4 0 28 19 53 43 66 61 99 88 125 100 13 6 23 14 23
19 0 13 53 -2 73 -21z m-356 -701 c22 -20 36 -80 31 -135 -3 -28 -6 -30 -49
-33 -34 -2 -52 2 -72 18 -32 26 -33 34 -6 85 49 93 59 100 96 65z m234 -28
c14 -12 20 -25 16 -35 -14 -37 -70 -4 -59 35 6 23 14 23 43 0z m-210 -431 c7
11 9 11 9 -2 0 -9 -7 -20 -16 -23 -8 -3 -12 -2 -9 4 3 6 1 10 -5 10 -6 0 -8 5
-4 12 6 9 9 9 12 -1 4 -11 6 -11 13 0z m-65 -19 c19 -12 21 -45 7 -75 -13 -25
-12 -32 2 -53 8 -13 19 -24 24 -24 15 0 18 -70 3 -91 -7 -10 -24 -19 -38 -19
-56 0 -144 55 -144 91 0 9 16 41 36 70 20 30 42 66 50 82 14 26 38 34 60 19z
m220 -121 c-3 -5 -15 -11 -26 -14 -17 -4 -19 -3 -9 9 12 15 44 20 35 5z m-106
-89 c0 -5 -7 -9 -15 -9 -8 0 -15 4 -15 9 0 4 7 8 15 8 8 0 15 -4 15 -8z m-57
-106 c3 4 13 -1 22 -9 9 -10 11 -18 5 -22 -5 -3 -10 -1 -10 4 0 6 -11 11 -24
11 -25 0 -40 12 -29 24 3 3 11 1 18 -4 7 -5 15 -7 18 -4z m-168 -166 c3 -6 -1
-7 -9 -4 -18 7 -21 14 -7 14 6 0 13 -4 16 -10z m220 -105 c11 -2 29 -19 40
-37 22 -38 45 -196 32 -230 -13 -37 -59 -78 -85 -78 -32 0 -89 36 -97 60 -3
11 -25 34 -48 52 -97 76 -103 89 -71 149 26 51 155 98 229 84z"/>
<path d="M2513 10536 c-27 -23 -28 -28 -27 -108 1 -46 8 -101 16 -123 l15 -40
165 -3 166 -2 8 -248 c11 -304 8 -2713 -3 -2947 l-8 -170 -157 -5 c-147 -5
-159 -6 -180 -28 -20 -20 -23 -32 -22 -105 1 -45 8 -100 16 -122 l15 -40 604
-3 c332 -2 623 0 647 3 23 4 55 17 70 30 25 21 27 29 27 97 0 40 -6 94 -14
120 l-13 47 -152 3 -151 3 -6 150 c-4 83 -10 446 -14 808 l-8 657 862 0 c746
0 862 -2 867 -15 7 -18 -14 -1553 -22 -1582 -6 -21 -12 -22 -146 -25 -139 -3
-140 -3 -164 -31 -20 -23 -24 -39 -24 -89 0 -34 7 -88 16 -120 l17 -58 621 0
c401 0 634 4 659 11 55 15 72 48 70 134 0 38 -8 88 -16 110 l-14 40 -165 3
-166 2 -8 198 c-11 256 -12 2901 -1 3053 l9 117 146 4 c154 4 182 11 204 51
16 29 14 151 -3 202 l-14 40 -648 3 -648 2 -31 -30 c-30 -30 -30 -32 -26 -113
3 -45 12 -99 21 -119 l16 -38 145 0 c129 0 145 -2 150 -17 5 -15 26 -1051 26
-1285 l0 -78 -867 0 -866 0 6 568 c4 312 10 622 14 688 l6 122 132 4 c150 4
175 14 195 74 14 40 9 117 -11 182 l-12 42 -648 0 -648 0 -28 -24z"/>
<path d="M566 9941 c-27 -28 -27 -30 -21 -122 7 -92 6 -95 -24 -152 -33 -63
-33 -80 0 -150 21 -46 18 -57 -22 -81 -19 -11 -28 -23 -25 -32 3 -8 2 -13 -3
-9 -10 5 -37 -63 -28 -71 2 -3 1 -21 -3 -40 -4 -18 -4 -34 0 -34 8 0 5 -99 -5
-158 -5 -27 -1 -38 24 -62 16 -17 37 -30 46 -30 19 0 73 27 93 46 7 8 21 14
31 14 9 0 26 7 37 15 10 8 29 15 42 15 13 0 33 5 45 12 20 11 41 15 99 21 13
1 16 7 12 22 -3 11 -2 16 3 10 4 -5 13 -10 18 -11 32 -1 91 -18 97 -28 4 -6 8
-59 8 -118 0 -237 46 -469 186 -941 24 -81 77 -274 118 -430 97 -366 135 -480
304 -902 334 -835 413 -993 777 -1565 140 -220 307 -501 301 -507 -9 -10 -427
312 -540 417 -27 25 -137 144 -245 265 -191 215 -603 635 -622 635 -12 0 -4
-30 24 -90 25 -53 56 -98 138 -200 65 -82 165 -212 189 -246 97 -141 575 -638
765 -796 154 -128 374 -290 484 -358 118 -72 138 -95 335 -380 90 -129 336
-522 336 -535 0 -23 -69 36 -235 201 -90 89 -183 170 -257 222 -63 45 -121 89
-128 97 -40 48 -270 200 -610 401 -58 34 -163 103 -235 152 -174 120 -479 272
-710 355 -191 69 -498 151 -618 166 -99 12 -204 -1 -232 -30 -27 -26 -15 -32
88 -48 134 -20 343 -84 502 -153 100 -44 384 -186 490 -245 50 -27 128 -70
175 -94 98 -50 405 -235 530 -318 97 -65 285 -202 440 -321 58 -45 150 -109
205 -142 55 -34 136 -85 180 -114 44 -28 145 -89 224 -135 122 -71 140 -85
117 -87 -15 -2 -74 12 -129 32 -56 19 -140 46 -187 61 -157 48 -274 97 -560
238 -157 77 -321 155 -364 174 -44 19 -105 49 -135 67 -31 19 -90 51 -131 71
-41 21 -120 65 -175 99 -55 35 -167 98 -250 141 -82 42 -219 125 -305 184
-181 125 -320 194 -320 161 0 -14 90 -104 170 -170 36 -29 75 -64 88 -78 75
-80 309 -269 484 -390 268 -185 451 -294 693 -414 345 -170 547 -240 1135
-393 421 -110 369 -86 490 -222 58 -64 174 -191 258 -281 83 -91 152 -169 152
-174 0 -4 -46 17 -102 47 -232 127 -361 184 -520 230 -163 46 -198 53 -198 34
0 -24 23 -49 97 -106 191 -148 385 -256 856 -479 l208 -98 76 -80 c86 -92 156
-177 149 -183 -11 -11 -231 85 -491 215 -159 80 -339 166 -398 193 -60 26
-161 78 -225 115 -64 37 -137 78 -162 92 -25 14 -88 55 -140 92 -52 38 -120
82 -150 100 -30 18 -120 80 -200 139 -192 142 -310 223 -322 219 -15 -5 139
-226 226 -323 254 -286 637 -527 1025 -647 135 -42 463 -180 626 -263 298
-153 405 -214 377 -215 -40 -1 -490 164 -657 240 -104 48 -242 107 -305 130
-126 47 -246 104 -355 167 -38 22 -179 95 -313 163 -185 93 -294 156 -457 265
-118 78 -269 175 -335 216 -293 179 -407 257 -672 461 -88 68 -75 4 31 -147
132 -189 397 -402 769 -619 218 -127 1451 -735 1762 -869 96 -41 225 -99 285
-127 61 -28 155 -70 210 -92 55 -22 155 -66 221 -98 l121 -57 164 -165 c166
-167 400 -371 524 -456 37 -26 74 -51 81 -57 22 -16 26 1 10 40 -21 50 -93
149 -181 251 -40 45 -110 131 -156 191 -46 59 -114 146 -152 192 -87 106 -95
124 -157 322 -28 90 -76 236 -106 324 -93 269 -161 491 -214 700 -58 226 -59
239 -19 486 10 68 38 248 60 399 22 151 49 309 59 351 41 159 143 444 200 559
27 54 60 151 60 177 0 32 -32 8 -66 -49 -21 -35 -57 -90 -80 -123 -23 -33 -92
-153 -152 -265 -81 -151 -124 -244 -160 -350 -28 -80 -54 -157 -57 -173 -4
-15 -12 -30 -18 -34 -11 -7 -5 135 12 252 6 39 11 223 11 410 1 360 -4 419
-52 600 -29 110 -105 298 -204 502 -82 171 -115 232 -203 368 -55 86 -50 80
-57 72 -3 -3 12 -44 35 -90 89 -186 181 -533 223 -835 19 -141 21 -207 23
-652 1 -509 18 -852 50 -1065 8 -55 40 -201 70 -325 30 -124 71 -301 90 -395
20 -93 55 -226 77 -293 22 -68 38 -126 35 -128 -6 -6 -104 111 -122 147 -19
35 -136 329 -210 524 -31 83 -92 227 -136 322 -43 95 -97 218 -120 275 -22 57
-66 153 -96 213 -31 61 -70 139 -87 175 -45 97 -137 274 -147 284 -18 19 -22
-5 -7 -41 9 -21 46 -132 84 -248 37 -115 103 -302 146 -415 44 -113 99 -259
123 -325 53 -145 129 -317 196 -443 27 -52 45 -92 40 -90 -6 1 -78 80 -162
173 -84 94 -204 226 -268 294 -63 68 -171 185 -238 260 -138 152 -131 131 -92
271 23 81 24 99 23 360 -1 296 -9 373 -65 660 -69 352 -152 601 -323 963 -61
131 -98 195 -193 337 -88 132 -92 138 -140 203 -24 31 -43 61 -43 66 0 13 -40
45 -47 37 -21 -21 58 -270 171 -533 235 -549 289 -726 352 -1150 31 -215 42
-324 29 -311 -3 3 -28 83 -56 179 -72 250 -159 436 -298 639 -28 41 -95 140
-148 220 -53 80 -120 177 -148 215 -58 81 -99 149 -110 185 -14 48 -142 306
-181 365 -95 147 -331 422 -347 406 -11 -11 14 -82 66 -186 27 -53 117 -271
117 -281 0 -14 -24 3 -66 46 -27 28 -52 50 -56 50 -19 0 -4 -25 47 -83 70 -80
94 -114 145 -211 75 -141 162 -435 206 -696 27 -166 27 -160 15 -160 -11 0
-81 109 -234 364 -66 111 -192 314 -282 451 -328 507 -379 610 -750 1505 -163
393 -210 533 -310 915 -20 77 -65 239 -100 360 -116 402 -156 592 -169 804 -6
96 -12 111 -49 111 -28 0 -57 19 -57 36 0 12 7 14 28 9 24 -5 35 1 69 36 l42
42 33 -21 c18 -11 69 -34 113 -52 44 -17 90 -38 102 -46 71 -46 114 18 117
173 1 57 7 97 15 107 7 8 10 19 7 25 -3 5 0 11 8 14 8 3 16 29 21 64 4 32 13
73 21 91 7 18 13 33 13 35 0 1 3 10 6 20 4 9 1 24 -6 33 -12 14 -14 14 -26 -2
-7 -9 -10 -20 -8 -25 3 -4 1 -10 -5 -14 -5 -3 -10 -17 -10 -31 0 -14 -11 -36
-26 -50 -21 -22 -31 -25 -62 -19 -20 4 -41 10 -47 13 -19 12 -48 12 -64 0 -14
-12 -14 -11 -3 4 8 10 10 22 5 30 -4 7 -8 31 -9 53 0 22 -4 62 -8 89 -7 48 -8
48 -39 42 -27 -6 -143 -51 -227 -89 -14 -6 -27 -12 -30 -13 -3 -2 -5 14 -4 34
2 52 -4 61 -36 60 -16 -1 -35 3 -42 9 -17 13 -56 14 -63 2 -4 -5 0 -9 8 -9 17
0 47 -32 47 -49 0 -8 -12 -2 -30 12 -16 14 -68 49 -115 77 -47 28 -97 67 -111
85 -14 19 -33 37 -42 40 -20 6 -68 73 -59 82 11 11 -14 33 -37 33 -12 0 -35
-13 -50 -29z m511 -343 c-3 -8 -6 -5 -6 6 -1 11 2 17 5 13 3 -3 4 -12 1 -19z
m-413 -3 c13 -14 13 -19 -9 -52 -14 -20 -25 -39 -25 -44 0 -4 -5 -20 -11 -36
-14 -36 -19 -83 -9 -83 17 0 80 75 80 95 0 8 5 15 10 15 6 0 10 3 9 8 -3 17
13 49 29 59 15 9 17 3 16 -71 0 -89 12 -116 53 -116 13 0 32 -4 41 -9 9 -5 46
-11 81 -15 68 -6 84 -12 57 -22 -9 -3 -16 -12 -16 -20 0 -8 -6 -14 -14 -14
-19 0 -62 -60 -58 -79 3 -12 1 -12 -10 -3 -11 8 -20 8 -40 -2 -15 -8 -31 -10
-40 -5 -24 13 -65 4 -106 -25 -55 -38 -103 -27 -126 29 -21 50 -21 280 0 306
6 8 14 26 18 41 6 27 31 58 46 58 5 0 15 -7 24 -15z m120 -11 c3 -8 2 -12 -4
-9 -6 3 -10 10 -10 16 0 14 7 11 14 -7z m531 -55 c16 -16 19 -32 18 -94 -2
-123 -37 -152 -117 -98 -103 68 -144 140 -111 193 21 34 175 34 210 -1z m118
-94 c-3 -9 -8 -14 -10 -11 -3 3 -2 9 2 15 9 16 15 13 8 -4z m1921 -5075 c118
-339 163 -440 336 -769 45 -84 79 -156 76 -158 -6 -6 -105 146 -249 379 -48
79 -129 199 -178 268 -81 113 -89 128 -85 160 3 19 9 98 12 174 l7 139 22 -44
c13 -24 39 -91 59 -149z m1960 -2663 c31 -70 56 -131 56 -134 0 -13 -52 62
-77 112 -14 28 -32 73 -39 100 -29 108 -12 85 60 -78z"/>
<path d="M6633 9156 c-27 -23 -28 -28 -27 -108 1 -46 8 -101 16 -123 l15 -40
180 -3 181 -2 8 -238 c5 -130 9 -979 9 -1887 0 -1710 -1 -1760 -41 -1935 -20
-90 -54 -151 -95 -175 -69 -41 -248 -22 -501 51 -64 19 -121 34 -126 34 -5 0
-20 -21 -35 -47 -62 -116 -81 -289 -39 -370 53 -103 111 -118 447 -118 287 1
373 13 528 73 222 86 396 284 451 513 50 206 48 132 56 2039 4 982 11 1846 15
1922 l8 136 161 4 c133 2 167 6 189 20 47 32 56 110 25 236 l-10 42 -694 0
-693 0 -28 -24z"/>
<path d="M8498 6409 c-30 -30 -31 -31 -26 -112 3 -45 13 -99 21 -119 l16 -38
175 0 174 0 9 -77 c11 -102 11 -3069 0 -3195 l-9 -97 -170 -3 -170 -3 -24 -28
c-20 -23 -24 -39 -24 -89 0 -34 7 -88 16 -120 l17 -58 651 0 c600 0 654 1 686
18 50 25 62 54 56 137 -3 39 -11 87 -17 108 l-12 37 -157 0 -157 0 -6 83 c-4
45 -10 278 -13 518 l-7 436 257 307 c142 168 261 306 265 306 5 0 46 -66 91
-147 293 -522 626 -1123 733 -1325 147 -278 184 -335 266 -411 47 -43 76 -61
124 -76 98 -30 206 -43 375 -43 247 -2 356 26 395 102 15 29 18 51 14 125 -3
50 -8 97 -11 106 -5 11 -30 20 -78 28 -103 17 -173 58 -268 157 -138 144 -267
330 -786 1139 -438 682 -464 722 -464 734 0 7 282 308 628 669 l627 657 110 6
c120 7 157 19 174 56 16 35 13 142 -5 196 l-16 47 -565 -2 -565 -3 -25 -29
c-24 -28 -25 -35 -20 -110 3 -45 10 -98 16 -118 l12 -37 126 -3 126 -3 -113
-140 c-247 -305 -464 -555 -844 -970 -201 -219 -501 -541 -559 -600 -19 -20
-19 -15 -13 765 3 432 9 822 13 868 l6 82 111 0 c196 1 236 23 236 134 0 34
-7 86 -15 114 l-16 52 -670 0 -671 0 -30 -31z"/>
</g>
</svg>
